<svg width="196" height="52" viewBox="0 0 196 52" fill="none" xmlns="http://www.w3.org/2000/svg">
<path fill-rule="evenodd" clip-rule="evenodd" d="M11.9837 6.098C6.21167 9.452 1.15767 12.714 0.753668 13.348C0.349668 13.982 0.012668 19.943 0.00366798 26.595C-0.013332 39.937 -0.220332 39.446 7.35667 43.989C11.1127 46.242 11.1917 46.248 10.1067 44.22C8.93567 42.032 8.53467 22.346 9.60467 19.558C10.1857 18.044 17.4637 13.409 28.2987 7.651L33.1087 5.095L28.0817 2.547C25.3177 1.146 22.9257 0 22.7667 0C22.6087 0 17.7557 2.744 11.9837 6.098ZM36.4887 20.844V34.5L25.6477 40.684C19.6857 44.085 14.1727 46.624 13.3977 46.327C12.6227 46.029 11.9887 46.012 11.9887 46.288C11.9887 47.116 21.8297 52 23.4977 52C24.3477 52 29.7557 49.251 35.5157 45.891L45.9887 39.782V26.403V13.025L42.2387 10.692C40.1767 9.409 38.0387 8.096 37.4887 7.774C36.8427 7.395 36.4887 12.017 36.4887 20.844Z" fill="url(#paint0_linear)"/>
<path d="M69.7188 14.7734H65.2852V27H62.834V14.7734H58.4395V12.7812H69.7188V14.7734ZM75.1969 12.7812L79.2984 23.6797L83.3902 12.7812H86.5836V27H84.1227V22.3125L84.3668 16.043L80.1676 27H78.4L74.2105 16.0527L74.4547 22.3125V27H71.9937V12.7812H75.1969ZM99.8937 14.7734H95.4602V27H93.009V14.7734H88.6145V12.7812H99.8937V14.7734ZM111.973 23.9043L115.586 12.7812H118.301L113.184 27H110.791L105.694 12.7812H108.399L111.973 23.9043ZM122.92 27H120.459V12.7812H122.92V27ZM134.668 20.6523H128.828V25.0273H135.654V27H126.357V12.7812H135.586V14.7734H128.828V18.6992H134.668V20.6523ZM148.534 14.7734H144.101V27H141.65V14.7734H137.255V12.7812H148.534V14.7734ZM162.089 27H159.618L153.28 16.9121V27H150.809V12.7812H153.28L159.637 22.9082V12.7812H162.089V27ZM173.543 23.6895H168.036L166.883 27H164.315L169.686 12.7812H171.903L177.284 27H174.705L173.543 23.6895ZM168.729 21.6973H172.85L170.789 15.7988L168.729 21.6973ZM182.508 12.7812L186.609 23.6797L190.701 12.7812H193.895V27H191.434V22.3125L191.678 16.043L187.479 27H185.711L181.521 16.0527L181.766 22.3125V27H179.305V12.7812H182.508Z" fill="white"/>
<path d="M89.8594 32.8867H87.6426V39H86.417V32.8867H84.2197V31.8906H89.8594V32.8867ZM95.9484 31.8906L97.9992 37.3398L100.045 31.8906H101.642V39H100.411V36.6562L100.533 33.5215L98.4338 39H97.55L95.4553 33.5264L95.5773 36.6562V39H94.3469V31.8906H95.9484ZM111.647 32.8867H109.43V39H108.204V32.8867H106.007V31.8906H111.647V32.8867ZM127.331 38.0771C127.074 38.4124 126.717 38.6663 126.262 38.8389C125.806 39.0114 125.288 39.0977 124.709 39.0977C124.113 39.0977 123.586 38.9626 123.127 38.6924C122.668 38.4222 122.313 38.0365 122.062 37.5352C121.815 37.0306 121.686 36.443 121.677 35.7725V35.2158C121.677 34.1416 121.934 33.3034 122.448 32.7012C122.962 32.0957 123.68 31.793 124.601 31.793C125.392 31.793 126.021 31.9883 126.486 32.3789C126.952 32.7695 127.232 33.3327 127.326 34.0684H126.115C125.978 33.2122 125.482 32.7842 124.626 32.7842C124.072 32.7842 123.651 32.9844 123.361 33.3848C123.075 33.7819 122.927 34.3662 122.917 35.1377V35.6846C122.917 36.4528 123.078 37.0501 123.4 37.4766C123.726 37.8997 124.177 38.1113 124.753 38.1113C125.384 38.1113 125.833 37.9681 126.1 37.6816V36.29H124.636V35.3525H127.331V38.0771ZM134.851 36.2607H133.474V39H132.238V31.8906H134.738C135.559 31.8906 136.192 32.0745 136.638 32.4424C137.084 32.8102 137.307 33.3424 137.307 34.0391C137.307 34.5143 137.191 34.9131 136.96 35.2354C136.732 35.5544 136.413 35.8001 136.003 35.9727L137.6 38.9365V39H136.276L134.851 36.2607ZM133.474 35.2695H134.743C135.16 35.2695 135.485 35.1654 135.72 34.957C135.954 34.7454 136.071 34.4574 136.071 34.0928C136.071 33.7119 135.962 33.4173 135.744 33.209C135.529 33.0007 135.207 32.8932 134.777 32.8867H133.474V35.2695ZM147.702 35.6309C147.702 36.3275 147.582 36.9395 147.341 37.4668C147.1 37.9909 146.755 38.3945 146.306 38.6777C145.86 38.9577 145.346 39.0977 144.763 39.0977C144.187 39.0977 143.672 38.9577 143.22 38.6777C142.771 38.3945 142.422 37.9925 142.175 37.4717C141.931 36.9508 141.807 36.3503 141.804 35.6699V35.2695C141.804 34.5762 141.926 33.9642 142.17 33.4336C142.418 32.903 142.764 32.4977 143.21 32.2178C143.659 31.9346 144.174 31.793 144.753 31.793C145.333 31.793 145.845 31.9329 146.291 32.2129C146.74 32.4896 147.087 32.89 147.331 33.4141C147.575 33.9349 147.699 34.542 147.702 35.2354V35.6309ZM146.467 35.2598C146.467 34.472 146.317 33.8682 146.018 33.4482C145.722 33.0283 145.3 32.8184 144.753 32.8184C144.219 32.8184 143.801 33.0283 143.498 33.4482C143.199 33.8649 143.046 34.4557 143.039 35.2207V35.6309C143.039 36.4121 143.191 37.016 143.493 37.4424C143.799 37.8688 144.223 38.082 144.763 38.082C145.31 38.082 145.73 37.8737 146.023 37.457C146.319 37.0404 146.467 36.4316 146.467 35.6309V35.2598ZM157.683 31.8906V36.6416C157.683 37.3968 157.44 37.9958 156.955 38.4385C156.474 38.8779 155.831 39.0977 155.027 39.0977C154.213 39.0977 153.567 38.8812 153.088 38.4482C152.61 38.012 152.371 37.4082 152.371 36.6367V31.8906H153.601V36.6465C153.601 37.1217 153.721 37.4847 153.962 37.7354C154.203 37.986 154.558 38.1113 155.027 38.1113C155.977 38.1113 156.453 37.61 156.453 36.6074V31.8906H157.683ZM163.792 36.3584V39H162.556V31.8906H165.276C166.07 31.8906 166.7 32.0973 167.166 32.5107C167.634 32.9242 167.869 33.471 167.869 34.1514C167.869 34.848 167.639 35.39 167.18 35.7773C166.725 36.1647 166.085 36.3584 165.261 36.3584H163.792ZM163.792 35.3672H165.276C165.715 35.3672 166.051 35.2646 166.282 35.0596C166.513 34.8512 166.629 34.5518 166.629 34.1611C166.629 33.777 166.511 33.471 166.277 33.2432C166.043 33.012 165.72 32.8932 165.31 32.8867H163.792V35.3672Z" fill="white"/>
<defs>
<linearGradient id="paint0_linear" x1="18.5" y1="25" x2="24.5" y2="29" gradientUnits="userSpaceOnUse">
<stop stop-color="#008B64"/>
<stop offset="1" stop-color="#007692"/>
</linearGradient>
</defs>
</svg>
